# xmcd
#
# Track frame offsets: 
#        150
#        25240
#        36070
#        58207
#        94320
#        106752
#        126320
#        145897
#        157075
#        190400
#        206925
#        218962
#        238550
#        268762
#        300775
#        318025
#
# Disc length: 4450 seconds
#
# Revision: 6
# Processed by: cddbd v1.5.2PL0 Copyright (c) Steve Scherf et al.
# Submitted via: ExactAudioCopyFreeDBPlugin 1.0
#
DISCID=e8116010
DTITLE=Led Zeppelin - Greatest Hits 1969-1971 vol1
DYEAR=1993
DGENRE=Rock
TTITLE0=Whole Lotta Love
TTITLE1=Immigrant Song
TTITLE2=Black Dog
TTITLE3=Stairway To Heaven
TTITLE4=Good Times Bad Times
TTITLE5=Moby Dick
TTITLE6=Bring In On Hme
TTITLE7=Communication Breakdown
TTITLE8=Since I've Been Loving You
TTITLE9=Rock And Roll
TTITLE10=Living Loving Maid (She Just a Woman)
TTITLE11=Bron-Yr-Aur Stomp
TTITLE12=Babe I'm Gonna Leave You
TTITLE13=When the Levee Breaks
TTITLE14=Friends
TTITLE15=Celebration Day
EXTD=
EXTT0=
EXTT1=
EXTT2=
EXTT3=
EXTT4=
EXTT5=
EXTT6=
EXTT7=
EXTT8=
EXTT9=
EXTT10=
EXTT11=
EXTT12=
EXTT13=
EXTT14=
EXTT15=
PLAYORDER=
